<svg width="80" height="13" viewBox="0 0 80 13" fill="none" xmlns="http://www.w3.org/2000/svg">
<path fill-rule="evenodd" clip-rule="evenodd" d="M10.6137 12.811C10.5457 12.811 10.4721 12.811 10.4041 12.811C6.67743 10.8283 6.67743 10.8283 6.67743 10.8283C3.02438 12.811 3.02438 12.811 3.02438 12.811C2.88279 12.8792 2.67324 12.811 2.60527 12.7428C2.46368 12.6746 2.39572 12.4587 2.39572 12.3167C3.09235 8.20925 3.09235 8.20925 3.09235 8.20925C0.141591 5.30619 0.141591 5.30619 0.141591 5.30619C0 5.16416 0 5.02213 0 4.8801C0.0679636 4.73807 0.209554 4.59605 0.351145 4.59605C4.49693 3.95976 4.49693 3.95976 4.49693 3.95976C6.32628 0.210202 6.32628 0.210202 6.32628 0.210202C6.39425 0.0681738 6.53584 0 6.67743 0C6.88698 0 7.02857 0.0681738 7.09654 0.210202C8.92589 3.95976 8.92589 3.95976 8.92589 3.95976C13.0717 4.59605 13.0717 4.59605 13.0717 4.59605C13.2133 4.59605 13.3549 4.73807 13.4228 4.8801C13.4228 5.02213 13.4228 5.16416 13.2812 5.30619C10.3305 8.20925 10.3305 8.20925 10.3305 8.20925C11.0328 12.3167 11.0328 12.3167 11.0328 12.3167C11.0328 12.4587 10.9648 12.669 10.8232 12.7428C10.7552 12.811 10.6816 12.811 10.6137 12.811Z" fill="black"/>
<path fill-rule="evenodd" clip-rule="evenodd" d="M27.2579 12.811C27.19 12.811 27.1164 12.811 27.0484 12.811C23.3217 10.8283 23.3217 10.8283 23.3217 10.8283C19.6687 12.811 19.6687 12.811 19.6687 12.811C19.5271 12.8792 19.3175 12.811 19.2496 12.7428C19.108 12.6746 19.04 12.4587 19.04 12.3167C19.7366 8.20925 19.7366 8.20925 19.7366 8.20925C16.7859 5.30619 16.7859 5.30619 16.7859 5.30619C16.6443 5.16416 16.6443 5.02213 16.6443 4.8801C16.7123 4.73807 16.8538 4.59605 16.9954 4.59605C21.1412 3.95976 21.1412 3.95976 21.1412 3.95976C22.9706 0.210202 22.9706 0.210202 22.9706 0.210202C23.0385 0.0681738 23.1801 0 23.3217 0C23.5313 0 23.6729 0.0681738 23.7408 0.210202C25.5702 3.95976 25.5702 3.95976 25.5702 3.95976C29.716 4.59605 29.716 4.59605 29.716 4.59605C29.8576 4.59605 29.9991 4.73807 30.0671 4.8801C30.0671 5.02213 30.0671 5.16416 29.9255 5.30619C26.9748 8.20925 26.9748 8.20925 26.9748 8.20925C27.6771 12.3167 27.6771 12.3167 27.6771 12.3167C27.6771 12.4587 27.6091 12.669 27.4675 12.7428C27.3995 12.811 27.3259 12.811 27.2579 12.811Z" fill="black"/>
<path fill-rule="evenodd" clip-rule="evenodd" d="M43.9022 12.811C43.8343 12.811 43.7606 12.811 43.6927 12.811C39.966 10.8283 39.966 10.8283 39.966 10.8283C36.313 12.811 36.313 12.811 36.313 12.811C36.1714 12.8792 35.9618 12.811 35.8938 12.7428C35.7523 12.6746 35.6843 12.4587 35.6843 12.3167C36.3809 8.20925 36.3809 8.20925 36.3809 8.20925C33.4302 5.30619 33.4302 5.30619 33.4302 5.30619C33.2886 5.16416 33.2886 5.02213 33.2886 4.8801C33.3565 4.73807 33.4981 4.59605 33.6397 4.59605C37.7855 3.95976 37.7855 3.95976 37.7855 3.95976C39.6149 0.210202 39.6149 0.210202 39.6149 0.210202C39.6828 0.0681738 39.8244 0 39.966 0C40.1756 0 40.3171 0.0681738 40.3851 0.210202C42.2145 3.95976 42.2145 3.95976 42.2145 3.95976C46.3602 4.59605 46.3602 4.59605 46.3602 4.59605C46.5018 4.59605 46.6434 4.73807 46.7114 4.8801C46.7114 5.02213 46.7114 5.16416 46.5698 5.30619C43.619 8.20925 43.619 8.20925 43.619 8.20925C44.3213 12.3167 44.3213 12.3167 44.3213 12.3167C44.3213 12.4587 44.2534 12.669 44.1118 12.7428C44.0438 12.811 43.9702 12.811 43.9022 12.811Z" fill="black"/>
<path fill-rule="evenodd" clip-rule="evenodd" d="M60.5466 12.811C60.4786 12.811 60.405 12.811 60.337 12.811C56.6104 10.8283 56.6104 10.8283 56.6104 10.8283C52.9573 12.811 52.9573 12.811 52.9573 12.811C52.8157 12.8792 52.6062 12.811 52.5382 12.7428C52.3966 12.6746 52.3286 12.4587 52.3286 12.3167C53.0253 8.20925 53.0253 8.20925 53.0253 8.20925C50.0745 5.30619 50.0745 5.30619 50.0745 5.30619C49.9329 5.16416 49.9329 5.02213 49.9329 4.8801C50.0009 4.73807 50.1425 4.59605 50.2841 4.59605C54.4298 3.95976 54.4299 3.95976 54.4299 3.95976C56.2592 0.210202 56.2592 0.210202 56.2592 0.210202C56.3272 0.0681738 56.4688 0 56.6104 0C56.8199 0 56.9615 0.0681738 57.0295 0.210202C58.8588 3.95976 58.8588 3.95976 58.8588 3.95976C63.0046 4.59605 63.0046 4.59605 63.0046 4.59605C63.1462 4.59605 63.2878 4.73807 63.3557 4.8801C63.3557 5.02213 63.3557 5.16416 63.2142 5.30619C60.2634 8.20925 60.2634 8.20925 60.2634 8.20925C60.9657 12.3167 60.9657 12.3167 60.9657 12.3167C60.9657 12.4587 60.8977 12.669 60.7561 12.7428C60.6882 12.811 60.6145 12.811 60.5466 12.811Z" fill="black"/>
<path fill-rule="evenodd" clip-rule="evenodd" d="M77.1909 12.811C77.1229 12.811 77.0493 12.811 76.9813 12.811C73.2546 10.8283 73.2546 10.8283 73.2546 10.8283C69.6016 12.811 69.6016 12.811 69.6016 12.811C69.46 12.8792 69.2504 12.811 69.1825 12.7428C69.0409 12.6746 68.9729 12.4587 68.9729 12.3167C69.6696 8.20925 69.6696 8.20925 69.6696 8.20925C66.7188 5.30619 66.7188 5.30619 66.7188 5.30619C66.5772 5.16416 66.5772 5.02213 66.5772 4.8801C66.6452 4.73807 66.7868 4.59605 66.9284 4.59605C71.0741 3.95976 71.0741 3.95976 71.0741 3.95976C72.9035 0.210202 72.9035 0.210202 72.9035 0.210202C72.9715 0.0681738 73.113 0 73.2546 0C73.4642 0 73.6058 0.0681738 73.6737 0.210202C75.5031 3.95976 75.5031 3.95976 75.5031 3.95976C79.6489 4.59605 79.6489 4.59605 79.6489 4.59605C79.7905 4.59605 79.9321 4.73807 80 4.8801C80 5.02213 80 5.16416 79.8584 5.30619C76.9077 8.20925 76.9077 8.20925 76.9077 8.20925C77.61 12.3167 77.61 12.3167 77.61 12.3167C77.61 12.4587 77.542 12.669 77.4004 12.7428C77.3325 12.811 77.2588 12.811 77.1909 12.811Z" fill="black"/>
</svg>
