<svg width="94" height="33" viewBox="0 0 94 33" fill="none" xmlns="http://www.w3.org/2000/svg">
<path d="M44.3368 16.14H40.6888L40.0168 18H38.8647L41.8888 9.684H43.1488L46.1608 18H45.0088L44.3368 16.14ZM44.0248 15.252L42.5128 11.028L41.0008 15.252H44.0248ZM47.0707 14.7C47.0707 14.02 47.2067 13.428 47.4787 12.924C47.7507 12.412 48.1267 12.016 48.6067 11.736C49.0947 11.456 49.6507 11.316 50.2747 11.316C51.0827 11.316 51.7467 11.512 52.2667 11.904C52.7947 12.296 53.1427 12.84 53.3107 13.536H52.1347C52.0227 13.136 51.8027 12.82 51.4747 12.588C51.1547 12.356 50.7547 12.24 50.2747 12.24C49.6507 12.24 49.1467 12.456 48.7627 12.888C48.3787 13.312 48.1867 13.916 48.1867 14.7C48.1867 15.492 48.3787 16.104 48.7627 16.536C49.1467 16.968 49.6507 17.184 50.2747 17.184C50.7547 17.184 51.1547 17.072 51.4747 16.848C51.7947 16.624 52.0147 16.304 52.1347 15.888H53.3107C53.1347 16.56 52.7827 17.1 52.2547 17.508C51.7267 17.908 51.0667 18.108 50.2747 18.108C49.6507 18.108 49.0947 17.968 48.6067 17.688C48.1267 17.408 47.7507 17.012 47.4787 16.5C47.2067 15.988 47.0707 15.388 47.0707 14.7ZM54.3598 14.7C54.3598 14.02 54.4958 13.428 54.7678 12.924C55.0398 12.412 55.4158 12.016 55.8958 11.736C56.3838 11.456 56.9398 11.316 57.5638 11.316C58.3718 11.316 59.0358 11.512 59.5558 11.904C60.0838 12.296 60.4318 12.84 60.5998 13.536H59.4238C59.3118 13.136 59.0918 12.82 58.7638 12.588C58.4438 12.356 58.0438 12.24 57.5638 12.24C56.9398 12.24 56.4358 12.456 56.0518 12.888C55.6678 13.312 55.4758 13.916 55.4758 14.7C55.4758 15.492 55.6678 16.104 56.0518 16.536C56.4358 16.968 56.9398 17.184 57.5638 17.184C58.0438 17.184 58.4438 17.072 58.7638 16.848C59.0838 16.624 59.3038 16.304 59.4238 15.888H60.5998C60.4238 16.56 60.0718 17.1 59.5438 17.508C59.0158 17.908 58.3558 18.108 57.5638 18.108C56.9398 18.108 56.3838 17.968 55.8958 17.688C55.4158 17.408 55.0398 17.012 54.7678 16.5C54.4958 15.988 54.3598 15.388 54.3598 14.7ZM64.9248 18.108C64.3088 18.108 63.7488 17.968 63.2448 17.688C62.7488 17.408 62.3568 17.012 62.0688 16.5C61.7888 15.98 61.6488 15.38 61.6488 14.7C61.6488 14.028 61.7928 13.436 62.0808 12.924C62.3768 12.404 62.7768 12.008 63.2808 11.736C63.7848 11.456 64.3488 11.316 64.9728 11.316C65.5968 11.316 66.1608 11.456 66.6648 11.736C67.1688 12.008 67.5648 12.4 67.8528 12.912C68.1488 13.424 68.2968 14.02 68.2968 14.7C68.2968 15.38 68.1448 15.98 67.8408 16.5C67.5448 17.012 67.1408 17.408 66.6288 17.688C66.1168 17.968 65.5488 18.108 64.9248 18.108ZM64.9248 17.148C65.3168 17.148 65.6848 17.056 66.0288 16.872C66.3728 16.688 66.6488 16.412 66.8568 16.044C67.0728 15.676 67.1808 15.228 67.1808 14.7C67.1808 14.172 67.0768 13.724 66.8688 13.356C66.6608 12.988 66.3888 12.716 66.0528 12.54C65.7168 12.356 65.3528 12.264 64.9608 12.264C64.5608 12.264 64.1928 12.356 63.8568 12.54C63.5288 12.716 63.2648 12.988 63.0648 13.356C62.8648 13.724 62.7648 14.172 62.7648 14.7C62.7648 15.236 62.8608 15.688 63.0528 16.056C63.2528 16.424 63.5168 16.7 63.8448 16.884C64.1728 17.06 64.5328 17.148 64.9248 17.148ZM75.5646 11.424V18H74.4726V17.028C74.2646 17.364 73.9726 17.628 73.5966 17.82C73.2286 18.004 72.8206 18.096 72.3726 18.096C71.8606 18.096 71.4006 17.992 70.9926 17.784C70.5846 17.568 70.2606 17.248 70.0206 16.824C69.7886 16.4 69.6726 15.884 69.6726 15.276V11.424H70.7526V15.132C70.7526 15.78 70.9166 16.28 71.2446 16.632C71.5726 16.976 72.0206 17.148 72.5886 17.148C73.1726 17.148 73.6326 16.968 73.9686 16.608C74.3046 16.248 74.4726 15.724 74.4726 15.036V11.424H75.5646ZM80.6124 11.304C81.4124 11.304 82.0604 11.548 82.5564 12.036C83.0524 12.516 83.3004 13.212 83.3004 14.124V18H82.2204V14.28C82.2204 13.624 82.0564 13.124 81.7284 12.78C81.4004 12.428 80.9524 12.252 80.3844 12.252C79.8084 12.252 79.3484 12.432 79.0044 12.792C78.6684 13.152 78.5004 13.676 78.5004 14.364V18H77.4084V11.424H78.5004V12.36C78.7164 12.024 79.0084 11.764 79.3764 11.58C79.7524 11.396 80.1644 11.304 80.6124 11.304ZM86.4162 12.324V16.2C86.4162 16.52 86.4842 16.748 86.6202 16.884C86.7562 17.012 86.9922 17.076 87.3282 17.076H88.1322V18H87.1482C86.5402 18 86.0842 17.86 85.7802 17.58C85.4762 17.3 85.3242 16.84 85.3242 16.2V12.324H84.4722V11.424H85.3242V9.768H86.4162V11.424H88.1322V12.324H86.4162Z" fill="black"/>
<mask id="mask0_6_863" style="mask-type:luminance" maskUnits="userSpaceOnUse" x="3" y="1" width="22" height="26">
<path d="M24.9375 1.69727H3.04501V26.3198H24.9375V1.69727Z" fill="white"/>
</mask>
<g mask="url(#mask0_6_863)">
<path d="M20.335 8.92484C20.335 5.42484 17.5 2.58984 14 2.58984C10.5 2.58984 7.66501 5.42484 7.66501 8.92484C7.66501 12.4248 10.5 15.2423 14 15.2423C17.5 15.2423 20.335 12.4248 20.335 8.92484ZM24.08 25.4448C24.08 20.0198 19.565 15.6098 14 15.6098C8.43501 15.6098 3.92001 20.0198 3.92001 25.4448H24.08Z" stroke="#1C1C1C"/>
</g>
</svg>
